<svg width="32" height="26" xmlns="http://www.w3.org/2000/svg"><path d="M2 0h28a2 2 0 012 2v22a2 2 0 01-2 2H2a2 2 0 01-2-2V2a2 2 0 012-2zm.999 24h26.002q.098 0 .195-.02.096-.018.187-.056.091-.038.173-.092.082-.055.151-.125.07-.07.125-.151.054-.082.092-.173.038-.09.057-.187Q30 23.099 30 23V2.999q0-.098-.02-.195-.018-.096-.056-.187-.038-.091-.092-.173-.055-.082-.125-.151-.07-.07-.151-.125-.082-.054-.173-.092-.09-.038-.187-.057Q29.099 2 29 2H2.999q-.098 0-.195.02-.096.018-.187.056-.091.038-.173.092-.082.055-.151.125-.07.07-.125.151-.054.082-.092.173-.038.09-.057.187Q2 2.901 2 3v20.002q0 .098.02.195.018.096.056.187.038.091.092.173.055.082.125.151.07.07.151.125.082.054.173.092.09.038.187.057Q2.901 24 3 24zm9.471-6.15a1 1 0 01-1 0A1 1 0 0111 17V9a1 1 0 011.47-.94l8 4a1 1 0 010 1.79l-8 4zM17.76 13L13 10.62v4.76L17.76 13z" fill="#FFF" fill-rule="evenodd"/></svg>