<svg width="26" height="26" xmlns="http://www.w3.org/2000/svg"><g fill="#FFF"><path d="M18.825 0H7.175C3.219 0 0 3.219 0 7.175v11.65C0 22.78 3.219 26 7.175 26h11.65C22.78 26 26 22.781 26 18.825V7.175C26 3.22 22.781 0 18.825 0zM24 18.992A5.014 5.014 0 0118.992 24H7.008A5.013 5.013 0 012 18.992V7.008A5.014 5.014 0 017.008 2h11.984A5.014 5.014 0 0124 7.008v11.984z"/><path d="M13 6c-3.86 0-7 3.14-7 7s3.14 7 7 7 7-3.14 7-7-3.14-7-7-7zm0 12c-2.757 0-5-2.243-5-5s2.243-5 5-5 5 2.243 5 5-2.243 5-5 5zM19.5 4A1.507 1.507 0 0018 5.5c0 .394.16.781.44 1.06.279.28.666.44 1.06.44.395 0 .781-.16 1.06-.44.28-.279.44-.666.44-1.06 0-.395-.16-.783-.44-1.06A1.506 1.506 0 0019.5 4z"/></g></svg>