<svg width="36" height="60" xmlns="http://www.w3.org/2000/svg"><path d="M17.986 0L0 6.189v.541L17.986.658 35.973 6.73V6.19L17.986 0zm-4.255 2.746v.62h8.549v-.62l-3.907-1.315v1.625h-.735V1.43l-3.907 1.315zM3.869 6.073v1.392h28.314V6.073l-3.868-1.431V7.04h-.696V4.487L22.82 2.94v1.818h-.541V4.06H13.73v.697h-.541V2.94L8.664 4.487V7.04h-.696V4.642l-4.1 1.43zm5.26-1.2h1.432v1.741H8.974l.155-1.74zm1.896 0h1.47v1.741h-1.47v-1.74zm3.365 0h1.431v1.741h-1.43v-1.74zm1.934 0h1.431v1.741h-1.43v-1.74zm1.934 0h1.431v1.741h-1.43v-1.74zm1.934 0h1.431v1.741h-1.43v-1.74zm3.327 0h1.43v1.741h-1.43v-1.74zm1.934 0h1.43v1.741h-1.43v-1.74zM3.327 6.267l-1.818.62v.076l1.818.851V6.266zm31.137.62l-1.78-.62v1.547l1.78-.85v-.078zM9.98 10.52H3.868l.077-2.592h28.237v2.592h-6.189l-2.398 1.625H12.378L9.98 10.52zM6.034 8.432H4.603v1.586h1.431V8.432zm1.934 0H6.537v1.586h1.431V8.432zm2.592 0H9.129l-.155 1.586H9.98l.58.426V8.432zm1.934 0h-1.47v2.476h1.47V8.432zm3.288 0h-1.47v2.476h1.47V8.432zm1.972 0h-1.508v2.476h1.508V8.432zm2.012 0h-1.509v2.476h1.509V8.432zm1.895 0H20.23v2.476h1.431V8.432zm3.288 0h-1.431v2.321h1.43v-2.32zm1.934 0h-1.431v2.012l.58-.426h.85V8.432zm2.591 0h-1.47v1.586h1.47V8.432zm1.934 0h-1.47v1.586h1.47V8.432zm-27.85 3.636h6.267l3.79 2.514v-1.005l-3.79-2.592H3.559v1.083zm28.856-1.083h-6.227l-3.791 2.592v1.005l3.79-2.514h6.228v-1.083zm-28.43 4.487v-2.9l5.763-.117 3.869 2.63v.387H3.984zm17.948 0v-2.32l1.006-.697h-9.903l1.045.696v2.321h7.851zm4.41-2.9h5.84v2.9h-9.709v-.27l3.868-2.63zM5.105 15.084h1.238l.193-2.05H5.106v2.05zm1.74 0h1.432v-2.05H6.846v2.05zm2.128 0h1.238l.193-1.624-.619-.426h-.812v2.05zm17.02 0h1.43v-2.05h-.85l-.58.426v1.624zm1.933 0h1.431v-2.05h-1.43v2.05zm1.896 0h1.47v-2.05h-1.47v2.05zm5.724 1.431v.503H.425v-.502h35.122zM.425 23.209a55.934 55.934 0 0117.561-3.094v.154a55.586 55.586 0 0117.561 2.94v.353c.002 13.59.003 27.989-17.56 35.659C.424 51.406.424 36.9.424 23.208zM23.44 34.812l2.012 11.179 3.404-.155-4.217-21.738-6.614 15.163-6.653-15.163-4.255 21.738h3.481l1.973-11.024 5.454 12.34 5.415-12.34z" fill="#242424" fill-rule="evenodd"/></svg>