<svg width="268" height="100" xmlns="http://www.w3.org/2000/svg"><path d="M134.762 0l-18.8 6.469v.566l18.8-6.348 18.801 6.348v-.566L134.762 0zm-4.447 2.87v.647h8.935v-.646l-4.084-1.375v1.698h-.768V1.496l-4.083 1.375zm-10.31 3.478v1.455H149.6V6.348l-4.043-1.496v2.506h-.728V4.69l-5.013-1.617v1.9h-.566v-.728h-8.935v.728h-.566v-1.9l-4.731 1.617v2.668h-.728V4.852l-4.285 1.496zm5.498-1.254h1.496v1.82h-1.657l.161-1.82zm1.982 0h1.536v1.82h-1.536v-1.82zm3.517 0h1.496v1.82h-1.496v-1.82zm2.022 0h1.496v1.82h-1.496v-1.82zm2.021 0h1.496v1.82h-1.496v-1.82zm2.022 0h1.496v1.82h-1.496v-1.82zm3.477 0h1.496v1.82h-1.496v-1.82zm2.021 0h1.496v1.82h-1.496v-1.82zM119.439 6.55l-1.901.647v.08l1.901.89V6.55zm32.547.647l-1.86-.647v1.617l1.86-.89v-.08zm-25.593 3.8h-6.388l.081-2.709H149.6v2.71h-6.469l-2.506 1.697H128.9l-2.507-1.698zm-4.124-2.183h-1.496v1.658h1.496V8.814zm2.021 0h-1.495v1.658h1.495V8.814zm2.709 0h-1.496l-.161 1.658h1.051l.606.444V8.814zm2.022 0h-1.536v2.588h1.536V8.814zm3.437 0h-1.537v2.588h1.537V8.814zm2.062 0h-1.577v2.588h1.577V8.814zm2.102 0h-1.577v2.588h1.577V8.814zm1.981 0h-1.496v2.588h1.496V8.814zm3.437 0h-1.496v2.426h1.496V8.814zm2.021 0h-1.496v2.102l.607-.444h.889V8.814zm2.709 0h-1.536v1.658h1.536V8.814zm2.022 0h-1.537v1.658h1.537V8.814zm-29.111 3.8h6.55l3.962 2.628v-1.05l-3.962-2.71h-6.55v1.133zm30.162-1.132h-6.51l-3.962 2.71v1.05l3.962-2.628h6.51v-1.132zm-10.957 4.69v-2.426l1.051-.727h-10.35l1.092.727v2.426h8.207zm-18.76 0V13.14l6.024-.121 4.043 2.75v.403h-10.067zm23.369-3.032h6.105v3.032h-10.148v-.283l4.043-2.749zm-22.196 2.628h1.293l.203-2.143h-1.496v2.143zm1.819 0h1.496v-2.143h-1.496v2.143zm2.224 0h1.293l.203-1.698-.647-.445h-.849v2.143zm17.789 0h1.496v-2.143h-.889l-.607.445v1.698zm2.022 0h1.496v-2.143h-1.496v2.143zm1.981 0h1.536v-2.143h-1.536v2.143zm5.984 1.496v.526h-36.712v-.526h36.712zm-18.356 3.76a58.47 58.47 0 00-18.356 3.235c0 14.312 0 29.474 18.356 37.64 18.359-8.016 18.357-23.067 18.356-37.272v-.368a58.103 58.103 0 00-18.356-3.073v-.162zm7.803 27.048l-2.102-11.684-5.66 12.897-5.701-12.897-2.062 11.523h-3.639l4.447-22.723 6.955 15.85 6.913-15.85 4.407 22.723-3.558.161zM9.345 99.622a9.622 9.622 0 007.44-3.275l-1.375-1.334a8.086 8.086 0 01-6.024 2.668A7.318 7.318 0 012.189 90a7.277 7.277 0 017.197-7.641 8.086 8.086 0 015.862 2.547l1.456-1.536a9.623 9.623 0 00-7.278-2.952A9.38 9.38 0 00.006 90a9.259 9.259 0 009.34 9.583v.04zm33.235-.323h-2.143l8.45-18.76h1.98l8.491 18.76h-2.264l-2.183-4.933H44.803l-2.223 4.933zm92.02 0h2.143l2.183-4.933h10.149l2.183 4.933h2.385l-8.49-18.76h-1.981l-8.572 18.76zm77.79 0h-2.143l8.49-18.76h1.941l8.49 18.76h-2.264l-2.183-4.933h-10.108l-2.223 4.933zm-190.713 0h2.102v-8.37h10.755v8.37h2.102V80.7h-2.102v8.248H23.779V80.7h-2.102V99.3zm41.36 0h12.575v-1.941H65.14V80.7h-2.102V99.3zm30.728 0H80.18V80.7h13.464v1.9H82.283v6.348H92.43v1.94H82.283v6.51h11.482v1.9zm10.553 0h2.142V82.6h6.267v-1.9H98.091v1.9h6.227V99.3zm84.379 0h2.062v-15.04l6.792 9.945h.081l6.793-9.986v15.08h2.102V80.7h-2.102l-6.793 10.148L190.84 80.7h-2.143V99.3zm47.345 0h2.143V82.6h6.226v-1.9h-14.636v1.9h6.267V99.3zm18.719 0h-2.102V82.6h-6.267v-1.9h14.636v1.9h-6.267V99.3zM265.597 80.7h2.102V99.34h-2.102V80.7zM132.094 94.245c0 3.194-2.709 5.053-6.752 5.053h-8.087V80.863h8.087c1.626 0 3.201.572 4.447 1.617a4.245 4.245 0 011.213 2.992 4.529 4.529 0 01-2.951 4.286 4.691 4.691 0 014.043 4.488zm37.852 3.128a7.358 7.358 0 01-5.75 2.249l-.041.121a7.32 7.32 0 01-7.762-8.086V80.862h2.102v10.674c0 4.043 2.264 6.307 5.701 6.307 3.436 0 5.62-2.143 5.62-6.186V80.862h2.143v10.674a7.36 7.36 0 01-2.013 5.837zM119.317 82.56v6.388l5.418-.04c2.547 0 4.286-1.132 4.286-3.316 0-1.819-1.375-3.032-4.043-3.032h-5.661zm-69.46.445l-4.245 9.501H53.9l-4.043-9.501zm89.919 9.501l4.043-9.501 4.245 9.501h-8.288zm79.689-9.501l-4.043 9.501h8.288l-4.245-9.501zm-100.148 7.843v6.55h6.429c2.79 0 4.569-1.253 4.569-3.356 0-2.021-1.698-3.194-4.973-3.194h-6.025z" fill="#FFF" fill-rule="evenodd"/></svg>